<?xml version="1.0" standalone="no"?>
<!DOCTYPE svg PUBLIC "-//W3C//DTD SVG 20010904//EN"
 "http://www.w3.org/TR/2001/REC-SVG-20010904/DTD/svg10.dtd">
<svg version="1.0" xmlns="http://www.w3.org/2000/svg"
 width="192.000000pt" height="192.000000pt" viewBox="0 0 192.000000 192.000000"
 preserveAspectRatio="xMidYMid meet">

<g transform="translate(0.000000,192.000000) scale(0.100000,-0.100000)"
fill="#000000" stroke="none">
<path d="M875 1496 c-153 -38 -258 -153 -286 -314 -27 -151 58 -314 201 -385
152 -77 318 -51 436 69 215 219 101 578 -200 633 -72 13 -86 13 -151 -3z m197
-63 c24 -9 51 -22 61 -29 18 -12 18 -13 -2 -24 -17 -9 -37 -7 -94 10 -109 30
-161 26 -282 -25 -47 -20 9 25 68 55 50 25 72 30 133 30 45 0 90 -7 116 -17z
m168 -132 c16 -31 12 -58 -12 -86 -20 -22 -38 -28 -127 -41 -58 -9 -129 -27
-159 -40 -59 -26 -77 -30 -67 -14 13 20 -14 9 -59 -26 -26 -20 -50 -33 -54
-30 -3 4 0 12 6 18 13 13 17 58 5 58 -4 0 -27 -19 -52 -42 -39 -38 -42 -39
-22 -11 35 51 110 111 189 150 66 33 85 38 177 43 70 5 112 12 127 23 30 21
35 21 48 -2z m39 -229 c-15 -70 -34 -90 -98 -102 -82 -15 -131 -13 -131 6 0
20 -24 13 -112 -32 -73 -37 -83 -35 -43 6 23 24 24 28 10 40 -14 12 -20 12
-38 0 -68 -41 -73 -43 -42 -17 83 72 214 117 341 117 56 0 77 4 95 19 13 11
25 18 27 17 1 -2 -3 -26 -9 -54z"/>
<path d="M1329 665 c-51 -28 -42 -100 16 -118 38 -12 56 -27 49 -38 -7 -13
-48 -11 -61 2 -15 15 -33 3 -33 -20 0 -40 101 -51 131 -15 17 20 14 63 -5 82
-9 10 -31 22 -48 28 -18 6 -34 16 -36 22 -6 18 28 27 50 13 15 -9 23 -9 33 -1
18 15 10 35 -21 49 -32 14 -43 14 -75 -4z"/>
<path d="M276 655 c-9 -25 -7 -168 3 -184 16 -25 41 -4 41 34 0 33 2 35 33 35
37 0 58 15 50 36 -3 9 -20 14 -45 14 -32 0 -39 3 -36 18 2 13 16 18 53 22 36
4 50 9 50 20 0 23 -140 27 -149 5z"/>
<path d="M455 648 c-3 -13 -5 -59 -3 -103 l3 -80 45 0 c34 0 46 4 48 17 2 11
-5 18 -20 20 -21 3 -23 9 -28 83 -4 65 -8 80 -22 83 -11 2 -19 -5 -23 -20z"/>
<path d="M580 651 c0 -11 9 -23 20 -26 11 -4 28 -18 37 -31 20 -31 6 -69 -32
-86 -33 -15 -34 -48 -1 -48 31 0 70 32 86 69 23 57 -28 141 -86 141 -17 0 -24
-6 -24 -19z"/>
<path d="M701 653 c0 -10 15 -56 33 -103 41 -105 59 -111 89 -30 17 46 21 51
28 35 5 -11 15 -37 23 -58 l15 -38 88 3 c74 3 88 6 91 21 3 15 -5 17 -57 17
-33 0 -62 4 -65 8 -10 17 11 31 54 34 37 2 45 6 45 23 0 16 -8 21 -38 23 -33
3 -36 5 -27 23 8 14 21 19 51 19 33 0 40 3 37 18 -3 14 -14 17 -62 17 l-59 0
-18 -54 c-11 -30 -21 -56 -23 -58 -2 -2 -13 24 -25 57 -28 75 -45 76 -72 1
-10 -30 -20 -56 -23 -58 -2 -2 -13 22 -23 54 -15 44 -25 59 -41 61 -16 3 -22
-2 -21 -15z"/>
<path d="M1167 663 c-11 -18 -77 -184 -77 -193 0 -18 39 -10 50 10 15 28 73
27 92 -2 10 -15 20 -19 32 -15 10 4 16 13 13 20 -3 6 -21 50 -41 97 -32 77
-56 105 -69 83z m33 -114 c0 -5 -7 -9 -15 -9 -15 0 -20 12 -9 23 8 8 24 -1 24
-14z"/>
<path d="M1484 657 c-2 -7 -4 -54 -2 -103 l3 -89 75 0 c63 0 75 3 78 18 3 14
-5 17 -52 17 -49 0 -56 3 -56 19 0 16 8 20 38 23 29 2 37 7 37 23 0 16 -8 21
-37 23 -30 3 -38 7 -38 23 0 16 7 19 56 19 47 0 55 3 52 18 -3 14 -16 18 -76
20 -54 2 -74 -1 -78 -11z"/>
</g>
</svg>
